<mxfile host="Electron" modified="2023-12-09T21:12:14.751Z" agent="Mozilla/5.0 (Windows NT 10.0; Win64; x64) AppleWebKit/537.36 (KHTML, like Gecko) draw.io/22.1.2 Chrome/114.0.5735.289 Electron/25.9.4 Safari/537.36" etag="Qy-ZIuCWKaZQCNkpCfVO" version="22.1.2" type="device">
  <diagram name="Page-1" id="Kq4tlTGUW5Ule5G5Z-Px">
    <mxGraphModel dx="1338" dy="711" grid="0" gridSize="10" guides="1" tooltips="1" connect="1" arrows="1" fold="1" page="1" pageScale="1" pageWidth="827" pageHeight="1169" math="0" shadow="0">
      <root>
        <mxCell id="0" />
        <mxCell id="1" parent="0" />
        <mxCell id="aiAg-_x6VdWTjJyO0qYp-1" value="VAL" style="rounded=0;whiteSpace=wrap;html=1;sketch=1;hachureGap=4;jiggle=2;curveFitting=1;fontFamily=Architects Daughter;fontSource=https%3A%2F%2Ffonts.googleapis.com%2Fcss%3Ffamily%3DArchitects%2BDaughter;fontSize=18;" vertex="1" parent="1">
          <mxGeometry x="10" y="40" width="540" height="20" as="geometry" />
        </mxCell>
        <mxCell id="aiAg-_x6VdWTjJyO0qYp-2" value="31" style="text;html=1;strokeColor=none;fillColor=none;align=center;verticalAlign=middle;whiteSpace=wrap;rounded=0;fontSize=10;fontFamily=Architects Daughter;fontStyle=1" vertex="1" parent="1">
          <mxGeometry x="10" y="30" width="20" height="10" as="geometry" />
        </mxCell>
        <mxCell id="aiAg-_x6VdWTjJyO0qYp-3" value="24" style="text;html=1;strokeColor=none;fillColor=none;align=center;verticalAlign=middle;whiteSpace=wrap;rounded=0;fontSize=10;fontFamily=Architects Daughter;strokeWidth=1;fontStyle=1" vertex="1" parent="1">
          <mxGeometry x="50" y="30" width="20" height="10" as="geometry" />
        </mxCell>
        <mxCell id="aiAg-_x6VdWTjJyO0qYp-6" value="..." style="text;html=1;strokeColor=none;fillColor=none;align=center;verticalAlign=middle;whiteSpace=wrap;rounded=0;fontSize=10;fontFamily=Architects Daughter;fontStyle=1" vertex="1" parent="1">
          <mxGeometry x="30" y="30" width="20" height="10" as="geometry" />
        </mxCell>
        <mxCell id="aiAg-_x6VdWTjJyO0qYp-7" value="23" style="text;html=1;strokeColor=none;fillColor=none;align=center;verticalAlign=middle;whiteSpace=wrap;rounded=0;fontSize=10;fontFamily=Architects Daughter;strokeWidth=1;fontStyle=1" vertex="1" parent="1">
          <mxGeometry x="70" y="30" width="20" height="10" as="geometry" />
        </mxCell>
        <mxCell id="aiAg-_x6VdWTjJyO0qYp-8" value="22" style="text;html=1;strokeColor=none;fillColor=none;align=center;verticalAlign=middle;whiteSpace=wrap;rounded=0;fontSize=10;fontFamily=Architects Daughter;strokeWidth=1;fontStyle=1" vertex="1" parent="1">
          <mxGeometry x="90" y="30" width="20" height="10" as="geometry" />
        </mxCell>
        <mxCell id="aiAg-_x6VdWTjJyO0qYp-9" value="21" style="text;html=1;strokeColor=none;fillColor=none;align=center;verticalAlign=middle;whiteSpace=wrap;rounded=0;fontSize=10;fontFamily=Architects Daughter;strokeWidth=1;fontStyle=1" vertex="1" parent="1">
          <mxGeometry x="110" y="30" width="20" height="10" as="geometry" />
        </mxCell>
        <mxCell id="aiAg-_x6VdWTjJyO0qYp-10" value="20" style="text;html=1;strokeColor=none;fillColor=none;align=center;verticalAlign=middle;whiteSpace=wrap;rounded=0;fontSize=10;fontFamily=Architects Daughter;strokeWidth=1;fontStyle=1" vertex="1" parent="1">
          <mxGeometry x="130" y="30" width="20" height="10" as="geometry" />
        </mxCell>
        <mxCell id="aiAg-_x6VdWTjJyO0qYp-11" value="19" style="text;html=1;strokeColor=none;fillColor=none;align=center;verticalAlign=middle;whiteSpace=wrap;rounded=0;fontSize=10;fontFamily=Architects Daughter;strokeWidth=1;fontStyle=1" vertex="1" parent="1">
          <mxGeometry x="150" y="30" width="20" height="10" as="geometry" />
        </mxCell>
        <mxCell id="aiAg-_x6VdWTjJyO0qYp-12" value="18" style="text;html=1;strokeColor=none;fillColor=none;align=center;verticalAlign=middle;whiteSpace=wrap;rounded=0;fontSize=10;fontFamily=Architects Daughter;strokeWidth=1;fontStyle=1" vertex="1" parent="1">
          <mxGeometry x="170" y="30" width="20" height="10" as="geometry" />
        </mxCell>
        <mxCell id="aiAg-_x6VdWTjJyO0qYp-13" value="17" style="text;html=1;strokeColor=none;fillColor=none;align=center;verticalAlign=middle;whiteSpace=wrap;rounded=0;fontSize=10;fontFamily=Architects Daughter;strokeWidth=1;fontStyle=1" vertex="1" parent="1">
          <mxGeometry x="190" y="30" width="20" height="10" as="geometry" />
        </mxCell>
        <mxCell id="aiAg-_x6VdWTjJyO0qYp-14" value="16" style="text;html=1;strokeColor=none;fillColor=none;align=center;verticalAlign=middle;whiteSpace=wrap;rounded=0;fontSize=10;fontFamily=Architects Daughter;strokeWidth=1;fontStyle=1" vertex="1" parent="1">
          <mxGeometry x="210" y="30" width="20" height="10" as="geometry" />
        </mxCell>
        <mxCell id="aiAg-_x6VdWTjJyO0qYp-15" value="15" style="text;html=1;strokeColor=none;fillColor=none;align=center;verticalAlign=middle;whiteSpace=wrap;rounded=0;fontSize=10;fontFamily=Architects Daughter;strokeWidth=1;fontStyle=1" vertex="1" parent="1">
          <mxGeometry x="230" y="30" width="20" height="10" as="geometry" />
        </mxCell>
        <mxCell id="aiAg-_x6VdWTjJyO0qYp-16" value="14" style="text;html=1;strokeColor=none;fillColor=none;align=center;verticalAlign=middle;whiteSpace=wrap;rounded=0;fontSize=10;fontFamily=Architects Daughter;strokeWidth=1;fontStyle=1" vertex="1" parent="1">
          <mxGeometry x="250" y="30" width="20" height="10" as="geometry" />
        </mxCell>
        <mxCell id="aiAg-_x6VdWTjJyO0qYp-17" value="13" style="text;html=1;strokeColor=none;fillColor=none;align=center;verticalAlign=middle;whiteSpace=wrap;rounded=0;fontSize=10;fontFamily=Architects Daughter;strokeWidth=1;fontStyle=1" vertex="1" parent="1">
          <mxGeometry x="270" y="30" width="20" height="10" as="geometry" />
        </mxCell>
        <mxCell id="aiAg-_x6VdWTjJyO0qYp-18" value="12" style="text;html=1;strokeColor=none;fillColor=none;align=center;verticalAlign=middle;whiteSpace=wrap;rounded=0;fontSize=10;fontFamily=Architects Daughter;strokeWidth=1;fontStyle=1" vertex="1" parent="1">
          <mxGeometry x="290" y="30" width="20" height="10" as="geometry" />
        </mxCell>
        <mxCell id="aiAg-_x6VdWTjJyO0qYp-19" value="11" style="text;html=1;strokeColor=none;fillColor=none;align=center;verticalAlign=middle;whiteSpace=wrap;rounded=0;fontSize=10;fontFamily=Architects Daughter;strokeWidth=1;fontStyle=1" vertex="1" parent="1">
          <mxGeometry x="310" y="30" width="20" height="10" as="geometry" />
        </mxCell>
        <mxCell id="aiAg-_x6VdWTjJyO0qYp-20" value="10" style="text;html=1;strokeColor=none;fillColor=none;align=center;verticalAlign=middle;whiteSpace=wrap;rounded=0;fontSize=10;fontFamily=Architects Daughter;strokeWidth=1;fontStyle=1" vertex="1" parent="1">
          <mxGeometry x="330" y="30" width="20" height="10" as="geometry" />
        </mxCell>
        <mxCell id="aiAg-_x6VdWTjJyO0qYp-21" value="9" style="text;html=1;strokeColor=none;fillColor=none;align=center;verticalAlign=middle;whiteSpace=wrap;rounded=0;fontSize=10;fontFamily=Architects Daughter;strokeWidth=1;fontStyle=1" vertex="1" parent="1">
          <mxGeometry x="350" y="30" width="20" height="10" as="geometry" />
        </mxCell>
        <mxCell id="aiAg-_x6VdWTjJyO0qYp-22" value="8" style="text;html=1;strokeColor=none;fillColor=none;align=center;verticalAlign=middle;whiteSpace=wrap;rounded=0;fontSize=10;fontFamily=Architects Daughter;strokeWidth=1;fontStyle=1" vertex="1" parent="1">
          <mxGeometry x="370" y="30" width="20" height="10" as="geometry" />
        </mxCell>
        <mxCell id="aiAg-_x6VdWTjJyO0qYp-23" value="7" style="text;html=1;strokeColor=none;fillColor=none;align=center;verticalAlign=middle;whiteSpace=wrap;rounded=0;fontSize=10;fontFamily=Architects Daughter;strokeWidth=1;fontStyle=1" vertex="1" parent="1">
          <mxGeometry x="390" y="30" width="20" height="10" as="geometry" />
        </mxCell>
        <mxCell id="aiAg-_x6VdWTjJyO0qYp-24" value="6" style="text;html=1;strokeColor=none;fillColor=none;align=center;verticalAlign=middle;whiteSpace=wrap;rounded=0;fontSize=10;fontFamily=Architects Daughter;strokeWidth=1;fontStyle=1" vertex="1" parent="1">
          <mxGeometry x="410" y="30" width="20" height="10" as="geometry" />
        </mxCell>
        <mxCell id="aiAg-_x6VdWTjJyO0qYp-25" value="5" style="text;html=1;strokeColor=none;fillColor=none;align=center;verticalAlign=middle;whiteSpace=wrap;rounded=0;fontSize=10;fontFamily=Architects Daughter;strokeWidth=1;fontStyle=1" vertex="1" parent="1">
          <mxGeometry x="430" y="30" width="20" height="10" as="geometry" />
        </mxCell>
        <mxCell id="aiAg-_x6VdWTjJyO0qYp-26" value="4" style="text;html=1;strokeColor=none;fillColor=none;align=center;verticalAlign=middle;whiteSpace=wrap;rounded=0;fontSize=10;fontFamily=Architects Daughter;strokeWidth=1;fontStyle=1" vertex="1" parent="1">
          <mxGeometry x="450" y="30" width="20" height="10" as="geometry" />
        </mxCell>
        <mxCell id="aiAg-_x6VdWTjJyO0qYp-27" value="3" style="text;html=1;strokeColor=none;fillColor=none;align=center;verticalAlign=middle;whiteSpace=wrap;rounded=0;fontSize=10;fontFamily=Architects Daughter;strokeWidth=1;fontStyle=1" vertex="1" parent="1">
          <mxGeometry x="470" y="30" width="20" height="10" as="geometry" />
        </mxCell>
        <mxCell id="aiAg-_x6VdWTjJyO0qYp-28" value="2" style="text;html=1;strokeColor=none;fillColor=none;align=center;verticalAlign=middle;whiteSpace=wrap;rounded=0;fontSize=10;fontFamily=Architects Daughter;strokeWidth=1;fontStyle=1" vertex="1" parent="1">
          <mxGeometry x="490" y="30" width="20" height="10" as="geometry" />
        </mxCell>
        <mxCell id="aiAg-_x6VdWTjJyO0qYp-29" value="1" style="text;html=1;strokeColor=none;fillColor=none;align=center;verticalAlign=middle;whiteSpace=wrap;rounded=0;fontSize=10;fontFamily=Architects Daughter;strokeWidth=1;fontStyle=1" vertex="1" parent="1">
          <mxGeometry x="510" y="30" width="20" height="10" as="geometry" />
        </mxCell>
        <mxCell id="aiAg-_x6VdWTjJyO0qYp-30" value="0" style="text;html=1;strokeColor=none;fillColor=none;align=center;verticalAlign=middle;whiteSpace=wrap;rounded=0;fontSize=10;fontFamily=Architects Daughter;strokeWidth=1;fontStyle=1" vertex="1" parent="1">
          <mxGeometry x="530" y="30" width="20" height="10" as="geometry" />
        </mxCell>
        <mxCell id="aiAg-_x6VdWTjJyO0qYp-31" value="" style="endArrow=none;html=1;rounded=0;sketch=1;hachureGap=4;jiggle=2;curveFitting=1;fontFamily=Architects Daughter;fontSource=https%3A%2F%2Ffonts.googleapis.com%2Fcss%3Ffamily%3DArchitects%2BDaughter;fontSize=16;entryX=0.111;entryY=0.041;entryDx=0;entryDy=0;entryPerimeter=0;exitX=0.111;exitY=0.988;exitDx=0;exitDy=0;exitPerimeter=0;" edge="1" parent="1" source="aiAg-_x6VdWTjJyO0qYp-1" target="aiAg-_x6VdWTjJyO0qYp-1">
          <mxGeometry width="50" height="50" relative="1" as="geometry">
            <mxPoint x="30" y="120" as="sourcePoint" />
            <mxPoint x="80" y="70" as="targetPoint" />
          </mxGeometry>
        </mxCell>
        <mxCell id="aiAg-_x6VdWTjJyO0qYp-32" value="" style="rounded=0;whiteSpace=wrap;html=1;sketch=1;hachureGap=4;jiggle=2;curveFitting=1;fontFamily=Architects Daughter;fontSource=https%3A%2F%2Ffonts.googleapis.com%2Fcss%3Ffamily%3DArchitects%2BDaughter;fontSize=18;" vertex="1" parent="1">
          <mxGeometry x="10" y="120" width="540" height="20" as="geometry" />
        </mxCell>
        <mxCell id="aiAg-_x6VdWTjJyO0qYp-33" value="31" style="text;html=1;strokeColor=none;fillColor=none;align=center;verticalAlign=middle;whiteSpace=wrap;rounded=0;fontSize=10;fontFamily=Architects Daughter;fontStyle=1" vertex="1" parent="1">
          <mxGeometry x="10" y="110" width="20" height="10" as="geometry" />
        </mxCell>
        <mxCell id="aiAg-_x6VdWTjJyO0qYp-34" value="23" style="text;html=1;strokeColor=none;fillColor=none;align=center;verticalAlign=middle;whiteSpace=wrap;rounded=0;fontSize=10;fontFamily=Architects Daughter;strokeWidth=1;fontStyle=1" vertex="1" parent="1">
          <mxGeometry x="50" y="110" width="20" height="10" as="geometry" />
        </mxCell>
        <mxCell id="aiAg-_x6VdWTjJyO0qYp-35" value="..." style="text;html=1;strokeColor=none;fillColor=none;align=center;verticalAlign=middle;whiteSpace=wrap;rounded=0;fontSize=10;fontFamily=Architects Daughter;fontStyle=1" vertex="1" parent="1">
          <mxGeometry x="30" y="110" width="20" height="10" as="geometry" />
        </mxCell>
        <mxCell id="aiAg-_x6VdWTjJyO0qYp-37" value="22" style="text;html=1;strokeColor=none;fillColor=none;align=center;verticalAlign=middle;whiteSpace=wrap;rounded=0;fontSize=10;fontFamily=Architects Daughter;strokeWidth=1;fontStyle=1" vertex="1" parent="1">
          <mxGeometry x="70" y="110" width="20" height="10" as="geometry" />
        </mxCell>
        <mxCell id="aiAg-_x6VdWTjJyO0qYp-38" value="21" style="text;html=1;strokeColor=none;fillColor=none;align=center;verticalAlign=middle;whiteSpace=wrap;rounded=0;fontSize=10;fontFamily=Architects Daughter;strokeWidth=1;fontStyle=1" vertex="1" parent="1">
          <mxGeometry x="90" y="110" width="20" height="10" as="geometry" />
        </mxCell>
        <mxCell id="aiAg-_x6VdWTjJyO0qYp-39" value="20" style="text;html=1;strokeColor=none;fillColor=none;align=center;verticalAlign=middle;whiteSpace=wrap;rounded=0;fontSize=10;fontFamily=Architects Daughter;strokeWidth=1;fontStyle=1" vertex="1" parent="1">
          <mxGeometry x="110" y="110" width="20" height="10" as="geometry" />
        </mxCell>
        <mxCell id="aiAg-_x6VdWTjJyO0qYp-40" value="19" style="text;html=1;strokeColor=none;fillColor=none;align=center;verticalAlign=middle;whiteSpace=wrap;rounded=0;fontSize=10;fontFamily=Architects Daughter;strokeWidth=1;fontStyle=1" vertex="1" parent="1">
          <mxGeometry x="130" y="110" width="20" height="10" as="geometry" />
        </mxCell>
        <mxCell id="aiAg-_x6VdWTjJyO0qYp-41" value="18" style="text;html=1;strokeColor=none;fillColor=none;align=center;verticalAlign=middle;whiteSpace=wrap;rounded=0;fontSize=10;fontFamily=Architects Daughter;strokeWidth=1;fontStyle=1" vertex="1" parent="1">
          <mxGeometry x="150" y="110" width="20" height="10" as="geometry" />
        </mxCell>
        <mxCell id="aiAg-_x6VdWTjJyO0qYp-42" value="17" style="text;html=1;strokeColor=none;fillColor=none;align=center;verticalAlign=middle;whiteSpace=wrap;rounded=0;fontSize=10;fontFamily=Architects Daughter;strokeWidth=1;fontStyle=1" vertex="1" parent="1">
          <mxGeometry x="170" y="110" width="20" height="10" as="geometry" />
        </mxCell>
        <mxCell id="aiAg-_x6VdWTjJyO0qYp-43" value="16" style="text;html=1;strokeColor=none;fillColor=none;align=center;verticalAlign=middle;whiteSpace=wrap;rounded=0;fontSize=10;fontFamily=Architects Daughter;strokeWidth=1;fontStyle=1" vertex="1" parent="1">
          <mxGeometry x="219.5" y="110" width="20" height="10" as="geometry" />
        </mxCell>
        <mxCell id="aiAg-_x6VdWTjJyO0qYp-44" value="15" style="text;html=1;strokeColor=none;fillColor=none;align=center;verticalAlign=middle;whiteSpace=wrap;rounded=0;fontSize=10;fontFamily=Architects Daughter;strokeWidth=1;fontStyle=1" vertex="1" parent="1">
          <mxGeometry x="270" y="110" width="20" height="10" as="geometry" />
        </mxCell>
        <mxCell id="aiAg-_x6VdWTjJyO0qYp-56" value="3" style="text;html=1;strokeColor=none;fillColor=none;align=center;verticalAlign=middle;whiteSpace=wrap;rounded=0;fontSize=10;fontFamily=Architects Daughter;strokeWidth=1;fontStyle=1" vertex="1" parent="1">
          <mxGeometry x="350" y="110" width="20" height="10" as="geometry" />
        </mxCell>
        <mxCell id="aiAg-_x6VdWTjJyO0qYp-57" value="2" style="text;html=1;strokeColor=none;fillColor=none;align=center;verticalAlign=middle;whiteSpace=wrap;rounded=0;fontSize=10;fontFamily=Architects Daughter;strokeWidth=1;fontStyle=1" vertex="1" parent="1">
          <mxGeometry x="399.5" y="110" width="20" height="10" as="geometry" />
        </mxCell>
        <mxCell id="aiAg-_x6VdWTjJyO0qYp-58" value="1" style="text;html=1;strokeColor=none;fillColor=none;align=center;verticalAlign=middle;whiteSpace=wrap;rounded=0;fontSize=10;fontFamily=Architects Daughter;strokeWidth=1;fontStyle=1" vertex="1" parent="1">
          <mxGeometry x="465" y="110" width="20" height="10" as="geometry" />
        </mxCell>
        <mxCell id="aiAg-_x6VdWTjJyO0qYp-59" value="0" style="text;html=1;strokeColor=none;fillColor=none;align=center;verticalAlign=middle;whiteSpace=wrap;rounded=0;fontSize=10;fontFamily=Architects Daughter;strokeWidth=1;fontStyle=1" vertex="1" parent="1">
          <mxGeometry x="515" y="110" width="20" height="10" as="geometry" />
        </mxCell>
        <mxCell id="aiAg-_x6VdWTjJyO0qYp-61" value="&lt;font style=&quot;font-size: 12px;&quot;&gt;ENABLE&lt;/font&gt;" style="text;html=1;strokeColor=none;fillColor=none;align=center;verticalAlign=middle;whiteSpace=wrap;rounded=0;fontSize=20;fontFamily=Architects Daughter;" vertex="1" parent="1">
          <mxGeometry x="500" y="120" width="50" height="20" as="geometry" />
        </mxCell>
        <mxCell id="aiAg-_x6VdWTjJyO0qYp-63" value="" style="endArrow=none;html=1;rounded=0;sketch=1;hachureGap=4;jiggle=2;curveFitting=1;fontFamily=Architects Daughter;fontSource=https%3A%2F%2Ffonts.googleapis.com%2Fcss%3Ffamily%3DArchitects%2BDaughter;fontSize=16;entryX=0;entryY=1;entryDx=0;entryDy=0;exitX=0;exitY=0;exitDx=0;exitDy=0;" edge="1" parent="1" source="aiAg-_x6VdWTjJyO0qYp-61" target="aiAg-_x6VdWTjJyO0qYp-61">
          <mxGeometry width="50" height="50" relative="1" as="geometry">
            <mxPoint x="470" y="200" as="sourcePoint" />
            <mxPoint x="520" y="150" as="targetPoint" />
          </mxGeometry>
        </mxCell>
        <mxCell id="aiAg-_x6VdWTjJyO0qYp-64" value="&lt;font style=&quot;font-size: 12px;&quot;&gt;TICKINT&lt;/font&gt;" style="text;html=1;strokeColor=none;fillColor=none;align=center;verticalAlign=middle;whiteSpace=wrap;rounded=0;fontSize=20;fontFamily=Architects Daughter;" vertex="1" parent="1">
          <mxGeometry x="450" y="120" width="50" height="20" as="geometry" />
        </mxCell>
        <mxCell id="aiAg-_x6VdWTjJyO0qYp-65" value="" style="endArrow=none;html=1;rounded=0;sketch=1;hachureGap=4;jiggle=2;curveFitting=1;fontFamily=Architects Daughter;fontSource=https%3A%2F%2Ffonts.googleapis.com%2Fcss%3Ffamily%3DArchitects%2BDaughter;fontSize=16;entryX=0;entryY=0;entryDx=0;entryDy=0;" edge="1" parent="1" target="aiAg-_x6VdWTjJyO0qYp-64">
          <mxGeometry width="50" height="50" relative="1" as="geometry">
            <mxPoint x="450" y="140" as="sourcePoint" />
            <mxPoint x="450" y="150" as="targetPoint" />
          </mxGeometry>
        </mxCell>
        <mxCell id="aiAg-_x6VdWTjJyO0qYp-66" value="&lt;font style=&quot;font-size: 12px;&quot;&gt;CLKSOURCE&lt;/font&gt;" style="text;html=1;strokeColor=none;fillColor=none;align=center;verticalAlign=middle;whiteSpace=wrap;rounded=0;fontSize=20;fontFamily=Architects Daughter;" vertex="1" parent="1">
          <mxGeometry x="370" y="120" width="79" height="20" as="geometry" />
        </mxCell>
        <mxCell id="aiAg-_x6VdWTjJyO0qYp-67" value="" style="endArrow=none;html=1;rounded=0;sketch=1;hachureGap=4;jiggle=2;curveFitting=1;fontFamily=Architects Daughter;fontSource=https%3A%2F%2Ffonts.googleapis.com%2Fcss%3Ffamily%3DArchitects%2BDaughter;fontSize=16;entryX=0;entryY=0;entryDx=0;entryDy=0;exitX=0;exitY=1;exitDx=0;exitDy=0;" edge="1" parent="1" source="aiAg-_x6VdWTjJyO0qYp-66" target="aiAg-_x6VdWTjJyO0qYp-66">
          <mxGeometry width="50" height="50" relative="1" as="geometry">
            <mxPoint x="330" y="200" as="sourcePoint" />
            <mxPoint x="380" y="150" as="targetPoint" />
          </mxGeometry>
        </mxCell>
        <mxCell id="aiAg-_x6VdWTjJyO0qYp-68" value="" style="endArrow=none;html=1;rounded=0;sketch=1;hachureGap=4;jiggle=2;curveFitting=1;fontFamily=Architects Daughter;fontSource=https%3A%2F%2Ffonts.googleapis.com%2Fcss%3Ffamily%3DArchitects%2BDaughter;fontSize=16;entryX=0.185;entryY=0.033;entryDx=0;entryDy=0;entryPerimeter=0;exitX=0.185;exitY=0.984;exitDx=0;exitDy=0;exitPerimeter=0;" edge="1" parent="1">
          <mxGeometry width="50" height="50" relative="1" as="geometry">
            <mxPoint x="269" y="140" as="sourcePoint" />
            <mxPoint x="269" y="120.98000000000002" as="targetPoint" />
          </mxGeometry>
        </mxCell>
        <mxCell id="aiAg-_x6VdWTjJyO0qYp-69" value="&lt;font style=&quot;font-size: 12px;&quot;&gt;COUNTFLAG&lt;/font&gt;" style="text;html=1;strokeColor=none;fillColor=none;align=center;verticalAlign=middle;whiteSpace=wrap;rounded=0;fontSize=20;fontFamily=Architects Daughter;" vertex="1" parent="1">
          <mxGeometry x="190" y="120" width="79" height="20" as="geometry" />
        </mxCell>
        <mxCell id="aiAg-_x6VdWTjJyO0qYp-70" value="..." style="text;html=1;strokeColor=none;fillColor=none;align=center;verticalAlign=middle;whiteSpace=wrap;rounded=0;fontSize=10;fontFamily=Architects Daughter;strokeWidth=1;fontStyle=1" vertex="1" parent="1">
          <mxGeometry x="310" y="110" width="20" height="10" as="geometry" />
        </mxCell>
        <mxCell id="aiAg-_x6VdWTjJyO0qYp-71" value="" style="endArrow=none;html=1;rounded=0;sketch=1;hachureGap=4;jiggle=2;curveFitting=1;fontFamily=Architects Daughter;fontSource=https%3A%2F%2Ffonts.googleapis.com%2Fcss%3Ffamily%3DArchitects%2BDaughter;fontSize=16;entryX=0;entryY=0;entryDx=0;entryDy=0;exitX=0;exitY=1;exitDx=0;exitDy=0;" edge="1" parent="1" source="aiAg-_x6VdWTjJyO0qYp-69" target="aiAg-_x6VdWTjJyO0qYp-69">
          <mxGeometry width="50" height="50" relative="1" as="geometry">
            <mxPoint x="150" y="200" as="sourcePoint" />
            <mxPoint x="200" y="150" as="targetPoint" />
          </mxGeometry>
        </mxCell>
        <mxCell id="aiAg-_x6VdWTjJyO0qYp-74" value="" style="edgeStyle=orthogonalEdgeStyle;rounded=0;sketch=1;hachureGap=4;jiggle=2;curveFitting=1;orthogonalLoop=1;jettySize=auto;html=1;fontFamily=Architects Daughter;fontSource=https%3A%2F%2Ffonts.googleapis.com%2Fcss%3Ffamily%3DArchitects%2BDaughter;fontSize=16;" edge="1" parent="1" source="aiAg-_x6VdWTjJyO0qYp-72" target="aiAg-_x6VdWTjJyO0qYp-73">
          <mxGeometry relative="1" as="geometry" />
        </mxCell>
        <mxCell id="aiAg-_x6VdWTjJyO0qYp-72" value="Clock Selection" style="rounded=0;whiteSpace=wrap;html=1;sketch=1;hachureGap=4;jiggle=2;curveFitting=1;fontFamily=Architects Daughter;fontSource=https%3A%2F%2Ffonts.googleapis.com%2Fcss%3Ffamily%3DArchitects%2BDaughter;fontSize=20;" vertex="1" parent="1">
          <mxGeometry x="179" y="515" width="120" height="60" as="geometry" />
        </mxCell>
        <mxCell id="aiAg-_x6VdWTjJyO0qYp-73" value="VAL&lt;br&gt;(24-bit counter)" style="rounded=0;whiteSpace=wrap;html=1;sketch=1;hachureGap=4;jiggle=2;curveFitting=1;fontFamily=Architects Daughter;fontSource=https%3A%2F%2Ffonts.googleapis.com%2Fcss%3Ffamily%3DArchitects%2BDaughter;fontSize=20;" vertex="1" parent="1">
          <mxGeometry x="359" y="507" width="120" height="76" as="geometry" />
        </mxCell>
        <mxCell id="aiAg-_x6VdWTjJyO0qYp-76" value="" style="edgeStyle=orthogonalEdgeStyle;rounded=0;sketch=1;hachureGap=4;jiggle=2;curveFitting=1;orthogonalLoop=1;jettySize=auto;html=1;fontFamily=Architects Daughter;fontSource=https%3A%2F%2Ffonts.googleapis.com%2Fcss%3Ffamily%3DArchitects%2BDaughter;fontSize=16;" edge="1" parent="1" source="aiAg-_x6VdWTjJyO0qYp-75" target="aiAg-_x6VdWTjJyO0qYp-73">
          <mxGeometry relative="1" as="geometry" />
        </mxCell>
        <mxCell id="aiAg-_x6VdWTjJyO0qYp-75" value="LOAD" style="rounded=0;whiteSpace=wrap;html=1;sketch=1;hachureGap=4;jiggle=2;curveFitting=1;fontFamily=Architects Daughter;fontSource=https%3A%2F%2Ffonts.googleapis.com%2Fcss%3Ffamily%3DArchitects%2BDaughter;fontSize=20;" vertex="1" parent="1">
          <mxGeometry x="359" y="401" width="120" height="60" as="geometry" />
        </mxCell>
        <mxCell id="aiAg-_x6VdWTjJyO0qYp-80" value="" style="edgeStyle=orthogonalEdgeStyle;rounded=0;sketch=1;hachureGap=4;jiggle=2;curveFitting=1;orthogonalLoop=1;jettySize=auto;html=1;fontFamily=Architects Daughter;fontSource=https%3A%2F%2Ffonts.googleapis.com%2Fcss%3Ffamily%3DArchitects%2BDaughter;fontSize=16;" edge="1" parent="1" source="aiAg-_x6VdWTjJyO0qYp-77" target="aiAg-_x6VdWTjJyO0qYp-79">
          <mxGeometry relative="1" as="geometry" />
        </mxCell>
        <mxCell id="aiAg-_x6VdWTjJyO0qYp-77" value="Controller" style="rounded=0;whiteSpace=wrap;html=1;sketch=1;hachureGap=4;jiggle=2;curveFitting=1;fontFamily=Architects Daughter;fontSource=https%3A%2F%2Ffonts.googleapis.com%2Fcss%3Ffamily%3DArchitects%2BDaughter;fontSize=20;" vertex="1" parent="1">
          <mxGeometry x="539" y="515" width="120" height="60" as="geometry" />
        </mxCell>
        <mxCell id="aiAg-_x6VdWTjJyO0qYp-79" value="SysTick&lt;br&gt;Interrupt" style="text;html=1;strokeColor=none;fillColor=none;align=center;verticalAlign=middle;whiteSpace=wrap;rounded=0;fontSize=20;fontFamily=Architects Daughter;" vertex="1" parent="1">
          <mxGeometry x="719" y="518" width="108" height="54" as="geometry" />
        </mxCell>
        <mxCell id="aiAg-_x6VdWTjJyO0qYp-88" value="" style="edgeStyle=orthogonalEdgeStyle;rounded=0;sketch=1;hachureGap=4;jiggle=2;curveFitting=1;orthogonalLoop=1;jettySize=auto;html=1;fontFamily=Architects Daughter;fontSource=https%3A%2F%2Ffonts.googleapis.com%2Fcss%3Ffamily%3DArchitects%2BDaughter;fontSize=16;" edge="1" parent="1" target="aiAg-_x6VdWTjJyO0qYp-72">
          <mxGeometry relative="1" as="geometry">
            <mxPoint x="122" y="529" as="sourcePoint" />
            <Array as="points">
              <mxPoint x="149" y="529" />
              <mxPoint x="149" y="529" />
            </Array>
          </mxGeometry>
        </mxCell>
        <mxCell id="aiAg-_x6VdWTjJyO0qYp-82" value="External Clock" style="text;html=1;strokeColor=none;fillColor=none;align=center;verticalAlign=middle;whiteSpace=wrap;rounded=0;fontSize=20;fontFamily=Architects Daughter;" vertex="1" parent="1">
          <mxGeometry x="26" y="497" width="84" height="44" as="geometry" />
        </mxCell>
        <mxCell id="aiAg-_x6VdWTjJyO0qYp-89" value="" style="edgeStyle=orthogonalEdgeStyle;rounded=0;sketch=1;hachureGap=4;jiggle=2;curveFitting=1;orthogonalLoop=1;jettySize=auto;html=1;fontFamily=Architects Daughter;fontSource=https%3A%2F%2Ffonts.googleapis.com%2Fcss%3Ffamily%3DArchitects%2BDaughter;fontSize=16;" edge="1" parent="1" source="aiAg-_x6VdWTjJyO0qYp-83" target="aiAg-_x6VdWTjJyO0qYp-72">
          <mxGeometry relative="1" as="geometry">
            <Array as="points">
              <mxPoint x="159" y="561" />
              <mxPoint x="159" y="561" />
            </Array>
          </mxGeometry>
        </mxCell>
        <mxCell id="aiAg-_x6VdWTjJyO0qYp-83" value="Processor&lt;br&gt;Clock" style="text;html=1;strokeColor=none;fillColor=none;align=center;verticalAlign=middle;whiteSpace=wrap;rounded=0;fontSize=20;fontFamily=Architects Daughter;" vertex="1" parent="1">
          <mxGeometry x="16" y="545" width="106" height="53" as="geometry" />
        </mxCell>
        <mxCell id="aiAg-_x6VdWTjJyO0qYp-84" value="" style="edgeStyle=orthogonalEdgeStyle;rounded=0;sketch=1;hachureGap=4;jiggle=2;curveFitting=1;orthogonalLoop=1;jettySize=auto;html=1;fontFamily=Architects Daughter;fontSource=https%3A%2F%2Ffonts.googleapis.com%2Fcss%3Ffamily%3DArchitects%2BDaughter;fontSize=16;" edge="1" parent="1">
          <mxGeometry relative="1" as="geometry">
            <mxPoint x="479" y="529.76" as="sourcePoint" />
            <mxPoint x="539" y="529.76" as="targetPoint" />
          </mxGeometry>
        </mxCell>
        <mxCell id="aiAg-_x6VdWTjJyO0qYp-85" value="" style="edgeStyle=orthogonalEdgeStyle;rounded=0;sketch=1;hachureGap=4;jiggle=2;curveFitting=1;orthogonalLoop=1;jettySize=auto;html=1;fontFamily=Architects Daughter;fontSource=https%3A%2F%2Ffonts.googleapis.com%2Fcss%3Ffamily%3DArchitects%2BDaughter;fontSize=16;" edge="1" parent="1">
          <mxGeometry relative="1" as="geometry">
            <mxPoint x="539" y="559.92" as="sourcePoint" />
            <mxPoint x="479" y="559.92" as="targetPoint" />
          </mxGeometry>
        </mxCell>
      </root>
    </mxGraphModel>
  </diagram>
</mxfile>
